<?xml version="1.0" encoding="UTF-8"?>
<svg id="Layer_1" xmlns="http://www.w3.org/2000/svg" version="1.1" viewBox="0 0 283.4 283.4">
  <!-- Generator: Adobe Illustrator 29.2.0, SVG Export Plug-In . SVG Version: 2.1.0 Build 108)  -->
  <defs>
    <style>
      .st0 {
        fill: #fff;
      }

      .st1 {
        fill: #5664f2;
      }
    </style>
  </defs>
  <g id="Layer_11" data-name="Layer_1">
    <circle class="st1" cx="142.1" cy="141.7" r="141.7"/>
    <path class="st0" d="M214.2,76c-13.6-6.2-28-10.7-43.1-13.3-1.9,3.3-4,7.7-5.5,11.2-16-2.3-31.9-2.3-47.7,0-1.5-3.5-3.7-7.9-5.5-11.2-15.2,2.5-29.6,7.1-43.1,13.3-27.3,40.2-34.6,79.5-31,118.2,18.1,13.2,35.6,21.2,52.8,26.4,4.2-5.7,8-11.8,11.3-18.2-6.2-2.3-12.1-5.2-17.8-8.5,1.5-1.1,2.9-2.2,4.3-3.4,34.3,15.7,71.5,15.7,105.4,0,1.5,1.2,2.8,2.3,4.3,3.4-5.7,3.4-11.6,6.2-17.8,8.5,3.3,6.4,7.1,12.5,11.3,18.2,17.2-5.3,34.7-13.3,52.8-26.4,4.5-44.9-7.2-83.8-30.8-118.2ZM107.2,170.4c-10.3,0-18.7-9.4-18.7-20.8s8.2-20.8,18.7-20.8,19,9.4,18.7,20.8c0,11.5-8.3,20.8-18.7,20.8ZM176.4,170.4c-10.3,0-18.8-9.4-18.8-20.8s8.2-20.8,18.8-20.8,19,9.4,18.7,20.8c0,11.5-8.2,20.8-18.7,20.8Z"/>
  </g>
</svg>