<?xml version="1.0" encoding="UTF-8"?>
<svg xmlns="http://www.w3.org/2000/svg" version="1.1" viewBox="0 0 283.4 283.4">
  <defs>
    <style>
      .cls-1, .cls-2 {
        fill: #fff;
      }

      .cls-2 {
        fill-rule: evenodd;
      }

      .cls-3 {
        fill: #FD3764;
      }
    </style>
  </defs>
  <!-- Generator: Adobe Illustrator 28.7.3, SVG Export Plug-In . SVG Version: 1.2.0 Build 164)  -->
  <g>
    <g id="Layer_1">
      <g id="Layer_11">
        <circle class="cls-3" cx="142.1" cy="141.7" r="141.7"/>
      </g>
      <path class="cls-2" d="M141.6,185.5c24.2,0,43.8-19.6,43.8-43.8s-19.6-43.8-43.8-43.8-43.8,19.6-43.8,43.8,19.6,43.8,43.8,43.8ZM141.6,170.9c16.1,0,29.2-13.1,29.2-29.2s-13.1-29.2-29.2-29.2-29.2,13.1-29.2,29.2,13.1,29.2,29.2,29.2Z"/>
      <path class="cls-1" d="M185.5,90.6c-4,0-7.3,3.3-7.3,7.3s3.3,7.3,7.3,7.3,7.3-3.3,7.3-7.3-3.3-7.3-7.3-7.3Z"/>
      <path class="cls-2" d="M66.1,85.3c-4.8,9.4-4.8,21.6-4.8,46.2v20.5c0,24.5,0,36.8,4.8,46.2,4.2,8.2,10.9,15,19.2,19.2,9.4,4.8,21.6,4.8,46.2,4.8h20.5c24.5,0,36.8,0,46.2-4.8,8.2-4.2,15-10.9,19.2-19.2,4.8-9.4,4.8-21.6,4.8-46.2v-20.5c0-24.5,0-36.8-4.8-46.2-4.2-8.2-10.9-15-19.2-19.2-9.4-4.8-21.6-4.8-46.2-4.8h-20.5c-24.5,0-36.8,0-46.2,4.8-8.2,4.2-15,10.9-19.2,19.2ZM151.9,76h-20.5c-12.5,0-21,0-27.6.5-6.4.5-9.7,1.5-12,2.6-5.5,2.8-10,7.3-12.8,12.8-1.2,2.3-2.1,5.6-2.6,12-.5,6.6-.5,15.1-.5,27.6v20.5c0,12.5,0,21,.5,27.6.5,6.4,1.5,9.7,2.6,12,2.8,5.5,7.3,10,12.8,12.8,2.3,1.2,5.6,2.1,12,2.6,6.6.5,15.1.5,27.6.5h20.5c12.5,0,21,0,27.6-.5,6.4-.5,9.7-1.5,12-2.6,5.5-2.8,10-7.3,12.8-12.8,1.2-2.3,2.1-5.6,2.6-12,.5-6.6.5-15.1.5-27.6v-20.5c0-12.5,0-21-.5-27.6-.5-6.4-1.5-9.7-2.6-12-2.8-5.5-7.3-10-12.8-12.8-2.3-1.2-5.6-2.1-12-2.6-6.6-.5-15.1-.5-27.6-.5Z"/>
    </g>
  </g>
</svg>