<?xml version="1.0" encoding="UTF-8"?>
<svg id="Layer_1" xmlns="http://www.w3.org/2000/svg" version="1.1" viewBox="0 0 283.5 283.5">
  <!-- Generator: Adobe Illustrator 29.6.1, SVG Export Plug-In . SVG Version: 2.1.1 Build 9)  -->
  <defs>
    <style>
      .st0 {
        display: none;
        fill: #0a66c2;
      }

      .st1 {
        fill: #fff;
      }
    </style>
  </defs>
  <g id="Layer_11" data-name="Layer_1">
    <circle class="st0" cx="141.7" cy="141.7" r="141.7"/>
    <path class="st1" d="M97.9,219.8h-30.9c-.4,0-.8-.3-.8-.8v-102.8c0-.4.3-.8.8-.8h30.9c.4,0,.8.3.8.8v102.8c0,.4-.3.8-.8.8ZM82.5,101.3c-10.4,0-18.8-8.6-18.8-18.9s8.4-18.8,18.8-18.8,18.8,8.4,18.8,18.8-8.4,18.9-18.8,18.9ZM219.9,219.8h-31.6c-.4,0-.8-.3-.8-.8v-50c0-12.1-.2-27.6-16.8-27.6s-19.4,13.1-19.4,26.7v50.9c0,.4-.3.8-.8.8h-30.8c-.4,0-.8-.3-.8-.8v-102.8c0-.4.3-.8.8-.8h29.5c.4,0,.8.3.8.8v13.5h0c.3,0,.5-.2.7-.4,4.5-8.1,14.9-16.4,30.4-16.4,32.8,0,38.8,21.6,38.8,49.6v57.3h0Z"/>
  </g>
</svg>