<?xml version="1.0" encoding="UTF-8"?>
<svg id="Layer_1" xmlns="http://www.w3.org/2000/svg" version="1.1" viewBox="0 0 800 800">
  <!-- Generator: Adobe Illustrator 29.6.1, SVG Export Plug-In . SVG Version: 2.1.1 Build 9)  -->
  <defs>
    <style>
      .st0 {
        fill: #a179dc;
        fill-rule: evenodd;
      }
    </style>
  </defs>
  <path class="st0" d="M400,45.3c-195.8,0-354.6,158.8-354.6,354.7s101.6,289.6,242.5,336.5c17.7,3.2,24.2-7.7,24.2-17.1s-.3-30.7-.5-60.3c-98.7,21.4-119.5-47.6-119.5-47.6-16.1-41-39.4-51.9-39.4-51.9-32.2-22,2.4-21.6,2.4-21.6,35.6,2.5,54.3,36.6,54.3,36.6,31.6,54.2,83,38.5,103.2,29.5,3.2-22.9,12.4-38.5,22.5-47.4-78.8-9-161.6-39.4-161.6-175.3s13.8-70.4,36.5-95.2c-3.7-9-15.8-45,3.5-93.9,0,0,29.8-9.5,97.5,36.3,28.3-7.9,58.6-11.8,88.8-11.9,30.1.2,60.5,4.1,88.8,11.9,67.7-45.9,97.4-36.3,97.4-36.3,19.4,48.8,7.2,84.9,3.6,93.9,22.7,24.8,36.4,56.4,36.4,95.2,0,136.3-82.9,166.2-161.9,175,12.7,11,24.1,32.6,24.1,65.7,0,47.4-.4,85.7-.4,97.3s6.4,20.5,24.4,17.1c140.8-47,242.4-179.8,242.4-336.5S595.9,45.3,400,45.3Z"/>
</svg>