<?xml version="1.0" encoding="UTF-8"?>
<svg id="Layer_1" xmlns="http://www.w3.org/2000/svg" version="1.1" viewBox="0 0 653.9 550">
  <!-- Generator: Adobe Illustrator 29.6.1, SVG Export Plug-In . SVG Version: 2.1.1 Build 9)  -->
  <defs>
    <style>
      .st0 {
        fill: #fff;
      }

      .st1 {
        fill: #265787;
      }

      .st2 {
        fill: none;
      }

      .st3 {
        fill: #ea7600;
      }
    </style>
  </defs>
  <g id="vlpa">
    <rect class="st2" x="-5.9" y="0" width="2048" height="550"/>
    <g>
      <path class="st0" d="M253.5,300.8c2.3-40.9,22.3-77,52.6-102.5,29.6-25.1,69.5-40.4,113.1-40.4s83.4,15.3,113,40.4c30.2,25.6,50.2,61.6,52.6,102.5,2.3,42-14.6,81.1-44.2,110-30.2,29.4-73.2,47.9-121.3,47.9s-91.2-18.5-121.4-47.9c-29.7-28.9-46.5-68-44.2-110h0Z"/>
      <g>
        <path class="st1" d="M334,304.5c1.2-21,11.5-39.5,27-52.6,15.2-12.9,35.7-20.7,58-20.7s42.8,7.9,58,20.7c15.5,13.1,25.8,31.6,27,52.6,1.2,21.6-7.5,41.6-22.7,56.5-15.5,15.1-37.6,24.6-62.3,24.6s-46.8-9.5-62.3-24.6c-15.2-14.9-23.9-34.9-22.7-56.4h0Z"/>
        <path class="st3" d="M198.6,347c.1,8.2,2.8,24.2,6.7,36.6,8.3,26.4,22.3,50.8,41.8,72.3,20,22.1,44.6,39.9,73.1,52.5,29.9,13.2,62.3,20,96,19.9,33.6,0,66-6.9,95.9-20.3,28.5-12.7,53.1-30.6,73-52.7,19.5-21.6,33.5-46.1,41.8-72.4,4.2-13.3,6.8-26.9,7.8-40.4,1-13.4.6-26.8-1.3-40.2-3.7-26.1-12.7-50.6-26.6-72.9-12.7-20.5-29.1-38.5-48.6-53.6h0S361.6,25,361.6,25c-.2-.1-.3-.3-.5-.4-12.9-9.9-34.6-9.9-48.8,0-14.3,10-16,26.6-3.2,37.1h0c0,0,82,66.7,82,66.7l-249.9.3h-.3c-20.7,0-40.5,13.6-44.4,30.7-4,17.5,10,31.9,31.5,32h0c0,0,126.7-.2,126.7-.2L28.4,364.8c-.3.2-.6.4-.9.6-21.3,16.3-28.2,43.5-14.8,60.7,13.6,17.5,42.6,17.5,64.2,0l123.4-101s-1.8,13.6-1.7,21.8h0ZM515.7,392.7c-25.4,25.9-61,40.6-99.5,40.7-38.6,0-74.2-14.5-99.6-40.3-12.4-12.6-21.5-27.1-27.2-42.5-5.5-15.2-7.7-31.3-6.2-47.5,1.3-15.9,6.1-31,13.6-44.7,7.4-13.5,17.6-25.7,30.2-36,24.7-20.1,56.2-31,89.1-31.1,32.9,0,64.4,10.8,89.1,30.8,12.6,10.3,22.8,22.4,30.2,35.8,7.6,13.7,12.3,28.8,13.7,44.7,1.4,16.2-.7,32.3-6.3,47.5-5.6,15.5-14.7,30-27.2,42.6h0Z"/>
      </g>
    </g>
  </g>
</svg>