<?xml version="1.0" encoding="UTF-8"?>
<svg id="Layer_1" xmlns="http://www.w3.org/2000/svg" version="1.1" viewBox="0 0 283.5 283.5">
  <!-- Generator: Adobe Illustrator 29.2.0, SVG Export Plug-In . SVG Version: 2.1.0 Build 108)  -->
  <defs>
    <style>
      .st0 {
        fill: #fff;
      }

      .st1 {
        fill: #dba14a;
      }
    </style>
  </defs>
  <g id="Layer_11" data-name="Layer_1">
    <circle class="st1" cx="141.7" cy="141.7" r="141.7"/>
    <path class="st0" d="M222.4,64.6H61.7c-10.3,0-18.6,8.7-18.6,19.5v117.1c0,10.8,8.3,19.5,18.6,19.5h160.8c10.3,0,18.6-8.7,18.6-19.5v-117.1c0-10.8-8.3-19.5-18.6-19.5ZM222.4,84.1v16.6c-8.7,7.4-22.5,19-52.1,43.3-6.6,5.4-19.3,18.3-28.4,18.2-8.9.2-21.8-12.8-28.4-18.2-29.5-24.3-43.3-35.9-52.1-43.3v-16.6h160.9ZM61.7,201.2v-75.5c8.8,7.4,21.4,17.8,40.5,33.6,8.5,7,23.2,22.4,39.8,22.3,16.5,0,31.1-15.1,39.8-22.3,19.1-15.8,31.7-26.2,40.6-33.6v75.5H61.7Z"/>
  </g>
</svg>