<?xml version="1.0" encoding="UTF-8"?>
<svg xmlns="http://www.w3.org/2000/svg" version="1.1" viewBox="0 0 283.5 283.5">
  <defs>
    <style>
      .cls-1 {
        fill: #fff;
      }

      .cls-2 {
        fill: #f95b5b;
      }
    </style>
  </defs>
  <!-- Generator: Adobe Illustrator 28.7.3, SVG Export Plug-In . SVG Version: 1.2.0 Build 164)  -->
  <g>
    <g id="Layer_1">
      <circle class="cls-2" cx="141.7" cy="141.7" r="141.7"/>
      <g>
        <path class="cls-1" d="M245.1,81v8.9c0,11.2-10.5,21.1-20,21.1s-21-9.5-21-20.7c0,11.3-9.2,20.7-20.7,20.7s-20.4-9.5-20.4-20.7c0,11.3-9.8,20.7-21.2,20.7h-.2c-11.4,0-21.2-9.5-21.2-20.7,0,11.3-8.9,20.7-20.4,20.7s-20.7-9.5-20.7-20.7c0,11.3-9.5,20.7-21,20.7s-20-9.9-20-21.1v-8.9c.2-5.3,17.9-25.8,27-31.1,8-.7,47.5-1.2,76.4-1.2s48.4.2,76.4,1.2c9,5.3,26.8,25.8,27,31.1Z"/>
        <path class="cls-1" d="M163.5,170.8l-12.1-.5v10.5c0,.5-4.8.3-9.7,0h0c-4.8.2-9.7.4-9.7,0v-10.5l-12.1.5c3.3-6,21.7-22.9,21.7-22.9h0s18.4,16.9,21.7,22.9Z"/>
        <path class="cls-1" d="M142.4,117.7c6.3,0,12.3-2.4,16.8-6.8,1.6-1.5,2.9-3.3,4-5.2,1.1,1.9,2.4,3.7,4,5.2,4.3,4.2,10.2,6.8,16.8,6.8,6.3,0,12.3-2.4,16.8-6.8,1.6-1.5,2.7-3.2,3.8-5.1h0c1.1,1.9,2.6,3.6,4.2,5.1,4.5,4.4,10.5,6.8,16.8,6.8s1.6-.2,2.3-.5c.9,9.6,1.3,18.8,1.4,25.4h0c0,3.4,0,6.2,0,10.1-.2,20.1,2,65.2-8.9,76.3-16.8,3.9-47.8,5.7-78.9,5.7h0c-31.1,0-62-1.8-78.9-5.7-10.9-11.1-8.7-56.1-8.9-76.3,0-3.9,0-6.7,0-10.1h0c.1-6.7.5-15.9,1.4-25.5.7.2,1.5.4,2.3.4,6.3,0,12.3-2.4,16.8-6.8,1.6-1.5,3.1-3.2,4.2-5.1h0c1.1,1.9,2.3,3.5,3.8,5.1,4.5,4.4,10.5,6.9,16.8,6.9s12.5-2.6,16.8-6.9c1.6-1.5,2.9-3.3,4-5.2h0c1.1,1.9,2.4,3.7,4,5.2,4.5,4.4,10.5,6.9,16.8,6.8.2,0,.5,0,.7,0h0c.2,0,.5,0,.7,0ZM201.2,214.4c11.8,0,21.3-.6,14.1-26.5l-9.7-34.7c-9-25.3-21.9-25.3-25.2-25.3h0s0,0,0,0c-6.8,0-12.9,0-20.4,8.2-5.9-.6-12.1-.9-18.3-.9h0c-6.2,0-12.4.3-18.3.9-7.5-8.2-13.6-8.2-20.4-8.2h0c-3.2,0-16.2,0-25.2,25.3l-9.7,34.7c-7.2,25.8,2.3,26.4,14.1,26.5,17.5-.6,27.2-13.4,27.2-26.1,9.7,1.6,21,2.4,32.3,2.4h0c11.3,0,22.6-.8,32.3-2.4,0,12.7,9.7,25.4,27.2,26.1Z"/>
      </g>
    </g>
  </g>
</svg>