<?xml version="1.0" encoding="UTF-8"?>
<svg xmlns="http://www.w3.org/2000/svg" version="1.1" viewBox="0 0 283.5 283.5">
  <defs>
    <style>
      .cls-1 {
        fill: #fff;
      }

      .cls-2 {
        fill: #0a66c2;
      }
    </style>
  </defs>
  <!-- Generator: Adobe Illustrator 28.7.3, SVG Export Plug-In . SVG Version: 1.2.0 Build 164)  -->
  <g>
    <g id="Layer_1">
      <circle class="cls-2" cx="141.7" cy="141.7" r="141.7"/>
      <path class="cls-1" d="M97.9,219.8h-30.9c-.4,0-.8-.3-.8-.8v-102.8c0-.4.3-.8.8-.8h30.9c.4,0,.8.3.8.8v102.8c0,.4-.3.8-.8.8ZM82.5,101.3c-10.4,0-18.8-8.6-18.8-18.9,0-10.4,8.4-18.8,18.8-18.8,10.4,0,18.8,8.4,18.8,18.8,0,10.4-8.4,18.9-18.8,18.9ZM219.9,219.8h-31.6c-.4,0-.8-.3-.8-.8v-50c0-12.1-.2-27.6-16.8-27.6s-19.4,13.1-19.4,26.7v50.9c0,.4-.3.8-.8.8h-30.8c-.4,0-.8-.3-.8-.8v-102.8c0-.4.3-.8.8-.8h29.5c.4,0,.8.3.8.8v13.5h0c.3,0,.5-.2.7-.4,4.5-8.1,14.9-16.4,30.4-16.4,32.8,0,38.8,21.6,38.8,49.6v57.3h0Z"/>
    </g>
  </g>
</svg>