<?xml version="1.0" encoding="UTF-8"?>
<svg id="Layer_1" data-name="Layer 1" xmlns="http://www.w3.org/2000/svg" viewBox="0 0 283.4 283.4">
  <defs>
    <style>
      .cls-1 {
        fill: #fff;
      }

      .cls-2 {
        fill: #393;
      }
    </style>
  </defs>
  <circle class="cls-2" cx="141.7" cy="141.7" r="141.7"/>
  <path class="cls-1" d="M52.71,138.85v-.25c2.23-28.79,12.66-50.39,30.78-64.05,17.87-13.9,37.24-20.61,58.34-20.61,22.09-.25,42.7,7.2,61.07,22.09,18.62,14.65,27.8,36.49,27.8,64.79v1.74c0,28.55-9.18,49.89-27.8,64.54-18.62,14.89-39.22,22.34-61.32,22.34h-.99c-21.6-.25-41.46-7.7-59.82-22.59-18.37-14.65-27.8-37.24-28.05-68.02h0ZM136.36,99.88v-39.22h-5.96c-1.24,1.49-2.23,3.23-3.23,4.72s-1.99,2.98-2.98,4.72c-.99,1.49-2.23,3.48-2.98,4.96-.99,1.49-1.74,2.98-2.49,4.72-1.49,2.49-2.73,4.96-3.73,7.2-1.24,2.23-2.23,4.47-2.98,6.46,1.49.99,3.23,2.23,5.21,2.98,2.23.75,4.47,1.49,6.7,1.99,2.49.5,4.72.75,6.7.99,2.23.25,4.22.5,5.71.5h0ZM146.79,60.66v38.97c1.24,0,2.73.25,4.22,0,1.49,0,3.23-.25,4.72-.5,2.73-.5,5.96-1.24,8.44-1.99,2.73-.99,5.21-2.23,6.95-3.73-2.98-7.2-6.2-12.91-9.44-18.37s-6.95-10.18-10.92-14.15v-.25h-3.97ZM119.98,62.9v-.25c-1.74.75-3.48,1.99-5.47,2.73-1.74.75-3.97,1.74-5.71,2.73-3.48,1.74-6.95,3.73-10.43,5.96-3.23,2.23-6.46,4.72-9.18,7.2.99.99,2.23,1.99,3.23,2.73s2.23,1.74,3.48,2.73c.99.5,2.23,1.24,3.48,2.23,1.24.75,2.73,1.74,4.22,2.73,1.99-4.47,3.97-9.18,6.46-13.41,2.49-4.47,5.21-8.69,7.94-12.42.25-.5.5-.99.99-1.49.25-.25.5-.99.99-1.49h0ZM195.93,81.26v-.25c-6.2-4.72-11.67-8.69-17.13-11.17s-10.92-4.96-15.89-6.95c3.97,3.97,7.45,8.94,9.68,13.65,2.49,4.96,4.96,10.18,6.95,15.14.99-.5,2.23-.99,3.73-1.99,1.24-.75,2.98-1.49,4.47-2.23,1.49-.99,2.73-1.99,4.22-2.98,1.49-1.24,2.98-2.23,3.97-3.23h0ZM191.72,136.62h28.55c0-9.18-1.99-17.87-5.71-26.81-3.48-8.69-8.44-15.89-14.65-22.09v-.25c-1.24,1.99-2.98,3.73-4.72,4.96-1.99,1.24-3.73,2.23-5.71,3.23-1.24.75-2.49,1.74-3.73,2.23-1.24.75-2.98,1.24-4.22,1.99.99,1.99,1.99,4.22,2.98,6.2.75,2.23,1.99,4.72,2.49,6.95,1.49,3.97,2.49,8.19,3.48,12.42.75,3.73,1.24,7.7,1.24,11.17ZM101.86,99.88v-.25c-1.99-.99-4.22-1.74-5.96-2.73-1.74-1.24-3.48-2.49-4.96-3.48-1.49-.75-2.98-1.74-4.22-2.73s-2.23-1.99-3.23-2.98c-6.46,6.2-11.17,13.15-14.15,21.35-3.23,8.19-5.47,17.38-6.46,27.31h30.53c0-6.95.99-13.65,2.73-20.36,1.49-6.95,3.73-12.16,5.71-16.13h0ZM136.36,136.37v-28.55c-1.99.25-4.47.25-6.7,0-2.49-.25-4.96-.99-7.2-1.74-1.99-.5-4.47-.99-6.46-1.74-2.23-.5-4.47-1.49-6.2-2.49-1.49,2.49-2.73,5.47-3.73,8.69-1.24,2.98-1.99,6.2-2.73,9.18-.5,2.98-.75,6.2-.99,8.94s-.5,5.47-.5,7.7h34.51ZM146.79,108.32v28.05h36.74c0-1.49,0-3.23-.25-5.21-.5-1.74-.75-3.97-.99-5.96-.75-2.98-1.49-6.2-2.49-9.18-.99-2.73-1.99-5.47-3.23-7.7-.5-1.24-.99-2.73-1.49-3.73-.75-1.24-1.49-1.99-1.99-2.73-2.73,1.99-6.46,3.23-10.92,4.22-4.22.99-9.18,1.99-13.65,2.23h-1.74,0ZM93.42,144.56h-30.53c0,4.22.75,8.94,1.99,14.65,1.24,5.96,3.73,11.42,6.46,17.38,1.24,2.98,2.73,5.96,4.22,8.94,1.74,2.73,3.73,5.71,5.71,8.44,1.49-.99,2.98-1.74,4.22-2.49,1.49-.75,3.23-1.74,4.72-2.49,1.74-.75,3.48-1.49,5.47-2.49,1.74-.75,3.97-1.74,6.2-2.73-1.99-6.2-4.22-12.16-5.71-18.87-1.74-6.46-2.73-12.91-2.73-20.1v-.25h0ZM136.36,173.6v-29.04h-34.51c0,1.99.25,4.96.75,7.94.25,2.98.99,6.2,1.49,9.44.99,3.48,1.74,6.95,2.73,9.93s1.99,5.47,2.98,7.7c4.47-1.74,8.94-2.98,11.92-3.73,3.23-.99,6.2-1.74,9.18-1.99h2.73c.99-.25,1.99-.25,2.73-.25h0ZM146.79,144.56v28.79c1.74.25,3.73.5,5.71.75,2.23.25,4.96.75,7.2,1.24l3.73.75c1.24.5,2.73.75,3.97.99,1.49.5,2.98.75,4.47,1.24,1.24.5,2.49.75,3.48,1.24,3.23-8.19,5.21-14.89,6.46-20.61,1.24-5.47,1.74-10.18,1.74-14.15v-.25h-36.75ZM220.26,144.81v-.25h-28.55v1.49c-.25,4.72-.99,10.18-1.99,15.89-.99,5.47-3.23,11.92-6.2,19.86,3.97,1.99,7.7,3.97,10.68,5.96s5.71,4.22,7.7,6.2c4.22-4.22,7.94-9.93,11.17-17.38,3.23-7.2,5.47-14.65,6.7-22.59.25-1.49.25-2.98.5-4.47v-4.72h0ZM136.36,220.27v-38.72c-6.2.99-11.42,2.23-15.39,3.23s-6.95,1.99-8.94,2.98c1.49,3.73,2.98,6.95,4.47,9.93,1.49,2.73,3.23,5.71,4.72,8.19.5.99,1.49,1.99,2.23,3.23.75.99,1.24,2.23,1.99,3.23.75,1.24,1.49,2.73,2.23,4.22.99,1.24,1.74,2.73,2.73,3.73h5.96ZM146.79,220.27h5.71c2.23-1.74,4.47-4.22,6.2-6.95,1.99-2.73,4.22-5.96,5.71-8.69,1.74-3.23,3.48-6.2,4.96-9.18s2.73-5.71,3.73-7.7c-2.73-.99-6.46-1.99-10.18-2.98s-8.94-1.99-16.13-2.98v38.48h0ZM195.93,199.92v-.25c-.5-.75-1.49-1.74-2.23-2.49s-1.99-1.74-3.23-2.49c-.99-.75-2.23-1.49-3.73-2.23s-3.48-1.74-5.21-2.73c-.99,1.99-2.73,5.47-5.21,10.18-2.23,4.72-6.2,10.43-11.17,16.63,6.2-.99,11.67-3.23,16.63-6.2,5.47-2.73,10.18-6.46,14.15-10.43h0ZM103.59,191.98v-.25c-1.74.99-4.47,2.23-7.2,3.48-2.98,1.24-6.2,2.73-9.18,4.72,1.74,1.49,3.48,2.98,4.96,3.97,1.49,1.24,3.23,2.23,4.72,3.23,2.73,1.74,5.96,3.48,9.18,4.96,3.23,1.49,7.2,2.98,12.16,4.47-1.74-1.99-2.98-4.47-4.22-6.46s-2.73-3.97-3.97-5.96-2.23-4.22-3.23-6.2c-1.24-1.99-2.23-3.97-3.23-5.96h0Z"/>
</svg>