<?xml version="1.0" encoding="UTF-8"?>
<svg id="Layer_1" xmlns="http://www.w3.org/2000/svg" version="1.1" viewBox="0 0 283.4 283.4">
  <!-- Generator: Adobe Illustrator 29.5.1, SVG Export Plug-In . SVG Version: 2.1.0 Build 141)  -->
  <defs>
    <style>
      .st0 {
        fill: #fff;
      }

      .st1 {
        fill: #0e2039;
      }
    </style>
  </defs>
  <circle class="st1" cx="141.7" cy="141.7" r="141.7"/>
  <path class="st0" d="M52.7,138.9v-.2c2.2-28.8,12.7-50.4,30.8-64.1,17.9-13.9,37.2-20.6,58.3-20.6,22.1-.2,42.7,7.2,61.1,22.1,18.6,14.7,27.8,36.5,27.8,64.8v1.7c0,28.6-9.2,49.9-27.8,64.5-18.6,14.9-39.2,22.3-61.3,22.3h-1c-21.6-.2-41.5-7.7-59.8-22.6-18.4-14.6-27.8-37.2-28-68h0ZM136.4,99.9v-39.2h-6c-1.2,1.5-2.2,3.2-3.2,4.7-1,1.5-2,3-3,4.7-1,1.5-2.2,3.5-3,5-1,1.5-1.7,3-2.5,4.7-1.5,2.5-2.7,5-3.7,7.2-1.2,2.2-2.2,4.5-3,6.5,1.5,1,3.2,2.2,5.2,3,2.2.8,4.5,1.5,6.7,2,2.5.5,4.7.8,6.7,1,2.2.2,4.2.5,5.7.5h0ZM146.8,60.7v39c1.2,0,2.7.2,4.2,0,1.5,0,3.2-.2,4.7-.5,2.7-.5,6-1.2,8.4-2,2.7-1,5.2-2.2,6.9-3.7-3-7.2-6.2-12.9-9.4-18.4s-6.9-10.2-10.9-14.2v-.2h-4ZM120,62.9v-.2c-1.7.8-3.5,2-5.5,2.7-1.7.8-4,1.7-5.7,2.7-3.5,1.7-6.9,3.7-10.4,6-3.2,2.2-6.5,4.7-9.2,7.2,1,1,2.2,2,3.2,2.7s2.2,1.7,3.5,2.7c1,.5,2.2,1.2,3.5,2.2,1.2.8,2.7,1.7,4.2,2.7,2-4.5,4-9.2,6.5-13.4,2.5-4.5,5.2-8.7,7.9-12.4.2-.5.5-1,1-1.5.2-.2.5-1,1-1.5h0ZM195.9,81.3v-.2c-6.2-4.7-11.7-8.7-17.1-11.2s-10.9-5-15.9-7c4,4,7.4,8.9,9.7,13.6,2.5,5,5,10.2,6.9,15.1,1-.5,2.2-1,3.7-2,1.2-.8,3-1.5,4.5-2.2,1.5-1,2.7-2,4.2-3,1.5-1.2,3-2.2,4-3.2h0ZM191.7,136.6h28.6c0-9.2-2-17.9-5.7-26.8-3.5-8.7-8.4-15.9-14.6-22.1v-.2c-1.2,2-3,3.7-4.7,5-2,1.2-3.7,2.2-5.7,3.2-1.2.8-2.5,1.7-3.7,2.2-1.2.8-3,1.2-4.2,2,1,2,2,4.2,3,6.2.8,2.2,2,4.7,2.5,6.9,1.5,4,2.5,8.2,3.5,12.4.8,3.7,1.2,7.7,1.2,11.2ZM101.9,99.9v-.2c-2-1-4.2-1.7-6-2.7-1.7-1.2-3.5-2.5-5-3.5-1.5-.8-3-1.7-4.2-2.7s-2.2-2-3.2-3c-6.5,6.2-11.2,13.2-14.2,21.3-3.2,8.2-5.5,17.4-6.5,27.3h30.5c0-6.9,1-13.7,2.7-20.4,1.5-6.9,3.7-12.2,5.7-16.1h0ZM136.4,136.4v-28.6c-2,.2-4.5.2-6.7,0-2.5-.2-5-1-7.2-1.7-2-.5-4.5-1-6.5-1.7-2.2-.5-4.5-1.5-6.2-2.5-1.5,2.5-2.7,5.5-3.7,8.7-1.2,3-2,6.2-2.7,9.2-.5,3-.8,6.2-1,8.9s-.5,5.5-.5,7.7h34.5ZM146.8,108.3v28h36.7c0-1.5,0-3.2-.2-5.2-.5-1.7-.8-4-1-6-.8-3-1.5-6.2-2.5-9.2-1-2.7-2-5.5-3.2-7.7-.5-1.2-1-2.7-1.5-3.7-.8-1.2-1.5-2-2-2.7-2.7,2-6.5,3.2-10.9,4.2-4.2,1-9.2,2-13.6,2.2h-1.7,0ZM93.4,144.6h-30.5c0,4.2.8,8.9,2,14.6,1.2,6,3.7,11.4,6.5,17.4,1.2,3,2.7,6,4.2,8.9,1.7,2.7,3.7,5.7,5.7,8.4,1.5-1,3-1.7,4.2-2.5,1.5-.8,3.2-1.7,4.7-2.5,1.7-.8,3.5-1.5,5.5-2.5,1.7-.8,4-1.7,6.2-2.7-2-6.2-4.2-12.2-5.7-18.9-1.7-6.5-2.7-12.9-2.7-20.1v-.2h0ZM136.4,173.6v-29h-34.5c0,2,.2,5,.8,7.9.2,3,1,6.2,1.5,9.4,1,3.5,1.7,6.9,2.7,9.9s2,5.5,3,7.7c4.5-1.7,8.9-3,11.9-3.7,3.2-1,6.2-1.7,9.2-2h2.7c1-.2,2-.2,2.7-.2h0ZM146.8,144.6v28.8c1.7.2,3.7.5,5.7.8,2.2.2,5,.8,7.2,1.2l3.7.8c1.2.5,2.7.8,4,1,1.5.5,3,.8,4.5,1.2,1.2.5,2.5.8,3.5,1.2,3.2-8.2,5.2-14.9,6.5-20.6,1.2-5.5,1.7-10.2,1.7-14.1v-.2h-36.8ZM220.3,144.8v-.2h-28.6v1.5c-.2,4.7-1,10.2-2,15.9-1,5.5-3.2,11.9-6.2,19.9,4,2,7.7,4,10.7,6s5.7,4.2,7.7,6.2c4.2-4.2,7.9-9.9,11.2-17.4,3.2-7.2,5.5-14.6,6.7-22.6.2-1.5.2-3,.5-4.5v-4.7h0ZM136.4,220.3v-38.7c-6.2,1-11.4,2.2-15.4,3.2s-6.9,2-8.9,3c1.5,3.7,3,6.9,4.5,9.9,1.5,2.7,3.2,5.7,4.7,8.2.5,1,1.5,2,2.2,3.2.8,1,1.2,2.2,2,3.2.8,1.2,1.5,2.7,2.2,4.2,1,1.2,1.7,2.7,2.7,3.7h6,0ZM146.8,220.3h5.7c2.2-1.7,4.5-4.2,6.2-6.9,2-2.7,4.2-6,5.7-8.7,1.7-3.2,3.5-6.2,5-9.2s2.7-5.7,3.7-7.7c-2.7-1-6.5-2-10.2-3s-8.9-2-16.1-3v38.5h0ZM195.9,199.9v-.2c-.5-.8-1.5-1.7-2.2-2.5s-2-1.7-3.2-2.5c-1-.8-2.2-1.5-3.7-2.2s-3.5-1.7-5.2-2.7c-1,2-2.7,5.5-5.2,10.2-2.2,4.7-6.2,10.4-11.2,16.6,6.2-1,11.7-3.2,16.6-6.2,5.5-2.7,10.2-6.5,14.1-10.4h0ZM103.6,192v-.2c-1.7,1-4.5,2.2-7.2,3.5-3,1.2-6.2,2.7-9.2,4.7,1.7,1.5,3.5,3,5,4,1.5,1.2,3.2,2.2,4.7,3.2,2.7,1.7,6,3.5,9.2,5,3.2,1.5,7.2,3,12.2,4.5-1.7-2-3-4.5-4.2-6.5s-2.7-4-4-6-2.2-4.2-3.2-6.2c-1.2-2-2.2-4-3.2-6h0Z"/>
</svg>